<?xml version="1.0" standalone="no"?>
<!DOCTYPE svg PUBLIC "-//W3C//DTD SVG 20010904//EN"
 "http://www.w3.org/TR/2001/REC-SVG-20010904/DTD/svg10.dtd">
<svg version="1.0" xmlns="http://www.w3.org/2000/svg"
 width="700.000000pt" height="700.000000pt" viewBox="0 0 700.000000 700.000000"
 preserveAspectRatio="xMidYMid meet">
<metadata>
Created by potrace 1.11, written by Peter Selinger 2001-2013
</metadata>
<g transform="translate(0.000000,700.000000) scale(0.100000,-0.100000)"
fill="#000000" stroke="none">
<path d="M3282 6990 c-564 -37 -1105 -205 -1579 -491 -800 -482 -1376 -1261
-1597 -2159 -71 -289 -99 -524 -99 -840 0 -316 28 -551 99 -840 308 -1254
1300 -2246 2554 -2554 289 -71 524 -99 840 -99 556 0 1034 110 1535 352 921
445 1613 1303 1859 2301 71 289 99 524 99 840 0 316 -28 551 -99 840 -308
1254 -1300 2246 -2554 2554 -336 82 -724 117 -1058 96z m388 -710 c350 -43
622 -164 824 -369 165 -166 267 -359 316 -600 11 -55 20 -102 20 -105 0 -4
-167 -5 -371 -4 l-371 3 -22 75 c-59 205 -199 345 -399 401 -108 31 -326 34
-427 6 -137 -37 -233 -107 -266 -193 -38 -98 0 -245 87 -339 73 -79 187 -145
724 -418 720 -365 869 -454 1044 -621 180 -172 259 -337 268 -562 7 -150 -11
-241 -71 -369 -93 -196 -263 -362 -503 -490 l-72 -38 66 -71 c83 -90 135 -167
183 -270 151 -322 101 -728 -123 -1011 -294 -371 -878 -544 -1452 -429 -392
79 -715 312 -888 643 -78 150 -136 344 -152 519 l-7 72 371 0 371 0 5 -22 c3
-13 12 -55 20 -94 8 -39 28 -108 44 -153 74 -202 193 -325 376 -388 72 -24 94
-27 220 -27 127 0 147 3 220 28 135 47 204 100 263 205 34 61 37 74 40 161 5
114 -10 175 -63 254 -81 122 -200 202 -609 407 -741 373 -915 473 -1078 616
-166 146 -264 290 -323 473 -39 122 -47 310 -17 429 62 243 229 434 555 635
l27 17 -53 62 c-148 174 -227 354 -245 561 -35 382 169 693 573 874 261 116
605 167 895 132z"/>
<path d="M2921 4283 c-85 -41 -186 -132 -223 -200 -34 -63 -51 -151 -43 -216
16 -120 102 -235 244 -326 42 -26 285 -155 541 -286 256 -131 475 -244 487
-252 55 -36 306 152 364 272 36 76 34 180 -5 260 -78 158 -247 269 -902 590
l-392 193 -71 -35z"/>
</g>
</svg>
