<?xml version="1.0" encoding="utf-8"?>
<!-- Generator: Adobe Illustrator 21.1.0, SVG Export Plug-In . SVG Version: 6.00 Build 0)  -->
<svg version="1.1" id="Layer_1" xmlns="http://www.w3.org/2000/svg" xmlns:xlink="http://www.w3.org/1999/xlink" x="0px" y="0px"
	 viewBox="0 0 240 240" style="enable-background:new 0 0 240 240;" xml:space="preserve">
<style type="text/css">
	.st0{fill:#222222;}
</style>
<g>
	<path class="st0" d="M165.8,167.6L132.2,116c-0.3-0.5-0.5-0.9-0.5-1.5c0-1.6,1.2-2.8,2.8-2.8h51c0.3,2.7,0.5,5.4,0.5,8.2
		C186.1,138.7,178.3,155.5,165.8,167.6 M81,173.3l39-59l39,59c-10.9,8.1-24.4,12.8-39,12.8S91.9,181.4,81,173.3 M53.9,120
		c0-2.8,0.2-5.5,0.5-8.2h51c1.6,0,2.8,1.2,2.8,2.8c0,0.5-0.2,1.1-0.5,1.5l-33.6,51.6C61.7,155.5,53.9,138.7,53.9,120 M120,53.9
		c30.2,0,55.7,20.4,63.5,48.1H56.5C64.3,74.3,89.8,53.9,120,53.9 M120,50c-38.6,0-70,31.4-70,70s31.4,70,70,70s70-31.4,70-70
		S158.6,50,120,50"/>
</g>
</svg>
