<?xml version="1.0" encoding="utf-8"?>
<!-- Generator: Adobe Illustrator 21.1.0, SVG Export Plug-In . SVG Version: 6.00 Build 0)  -->
<svg version="1.1" id="Layer_1" xmlns="http://www.w3.org/2000/svg" xmlns:xlink="http://www.w3.org/1999/xlink" x="0px" y="0px"
	 viewBox="0 0 240 240" style="enable-background:new 0 0 240 240;" xml:space="preserve">
<style type="text/css">
	.st0{fill:#222222;}
</style>
<g>
	<path class="st0" d="M178.9,181.2l-43.2-66.3c-0.4-0.6-0.6-1.2-0.6-1.9c0-2,1.6-3.6,3.6-3.6h65.6c0.4,3.5,0.7,7,0.7,10.6
		C205,144,194.9,165.7,178.9,181.2 M69.9,188.5l50.1-75.9l50.1,75.9C156.1,198.9,138.7,205,120,205S83.9,198.9,69.9,188.5 M35,120
		c0-3.6,0.3-7.1,0.7-10.6h65.6c2,0,3.6,1.6,3.6,3.6c0,0.7-0.2,1.4-0.6,1.9l-43.2,66.3C45.1,165.7,35,144,35,120 M120,35
		c38.8,0,71.6,26.2,81.7,61.8H38.3C48.4,61.2,81.2,35,120,35 M120,30c-49.6,0-90,40.4-90,90c0,49.6,40.4,90,90,90s90-40.4,90-90
		C210,70.4,169.6,30,120,30"/>
</g>
</svg>
