<?xml version="1.0" encoding="utf-8"?>
<!-- Generator: Adobe Illustrator 21.1.0, SVG Export Plug-In . SVG Version: 6.00 Build 0)  -->
<svg version="1.1" id="Layer_1" xmlns="http://www.w3.org/2000/svg" xmlns:xlink="http://www.w3.org/1999/xlink" x="0px" y="0px"
	 viewBox="0 0 240 240" style="enable-background:new 0 0 240 240;" xml:space="preserve">
<style type="text/css">
	.st0{fill:#222222;}
</style>
<path class="st0" d="M200.225,125.133c-1.351,1.351-2.611,2.071-3.782,2.071c-1.621,0-2.791-1.441-2.791-3.692
	c0-2.701,1.531-3.962,6.573-6.123V125.133L200.225,125.133z M206.348,115.228c0-5.583-4.592-7.564-8.914-7.564
	c-4.682,0-8.014,2.521-9.095,6.843h0.81c1.261-2.251,3.332-3.422,6.033-3.422c3.692,0,5.043,1.711,5.043,5.313
	c-4.952,1.801-12.966,2.251-12.966,7.744c0,2.971,2.701,5.313,6.033,5.313c2.431,0,4.322-0.63,6.393-2.431l0.45-0.45
	c0.99,2.071,2.431,2.881,4.862,2.881c2.971,0,4.682-1.351,4.952-3.872h-0.9c-0.18,1.261-0.72,1.891-1.621,1.891
	c-0.9,0-1.261-0.81-1.261-2.701L206.348,115.228L206.348,115.228z M167.629,136.478c0-1.891,2.161-3.152,5.583-3.152
	c3.152,0,11.166,0.81,11.166,4.862c0,1.891-2.161,3.332-5.133,3.332C175.283,141.521,167.629,140.26,167.629,136.478
	 M170.15,115.768c0-4.412,1.621-6.573,4.862-6.573c2.341,0,4.322,2.071,4.322,6.393c0,4.682-2.071,6.663-4.592,6.663
	C171.951,122.251,170.15,119.73,170.15,115.768 M187.889,107.754h-10.535c-0.36,0-1.801-0.09-2.971-0.09
	c-6.033,0-10.265,3.692-10.265,8.284c0,3.512,2.071,5.673,6.753,7.114v0.09c-4.772,1.081-6.573,2.161-6.573,4.502
	c0,2.161,0.991,4.142,7.114,4.862v0.09c-5.943,0.63-8.644,3.422-8.644,6.033c0,3.692,4.772,6.303,11.616,6.303
	c9.005,0,13.507-4.502,13.507-9.185c0-1.351-0.63-3.062-1.891-4.412c-4.772-4.772-16.748-2.161-16.748-5.493
	c0-1.711,2.431-2.161,6.483-2.161c6.033,0,9.725-3.422,9.725-7.384c0-1.981-0.72-3.512-2.701-5.133l0.09-0.09l5.133,0.36
	L187.889,107.754L187.889,107.754z M153.132,98.569c0,1.891,1.621,3.512,3.512,3.512c1.891,0,3.512-1.621,3.512-3.512
	s-1.531-3.512-3.512-3.512C154.752,95.058,153.132,96.678,153.132,98.569 M159.705,107.664h-0.9l-8.824,0.72v0.9
	c2.971,0.63,3.692,1.261,3.692,3.782v10.805c0,2.611-0.63,3.332-3.422,3.872v0.9h12.696v-0.9c-2.251-0.27-3.242-1.351-3.242-3.422
	V107.664L159.705,107.664z M135.933,123.062c0,4.592,3.062,6.393,6.843,6.393c2.971,0,4.952-1.081,6.483-3.602l-0.63-0.63
	c-0.991,1.171-1.891,1.621-2.971,1.621c-2.881,0-3.692-1.891-3.692-5.223v-11.616h6.663v-1.621h-6.663v-7.834h-0.99
	c-2.881,3.692-6.213,6.843-8.644,8.464v0.99h3.692L135.933,123.062L135.933,123.062z M130.8,108.474h-4.502v-6.033
	c0-3.872,1.171-5.943,3.332-5.943c1.621,0,3.872,1.801,3.512,6.033h0.9l4.322-5.223c-1.891-1.531-4.322-2.251-7.294-2.251
	c-4.052,0-6.573,1.171-7.924,2.431c-4.952,4.952,0.09,10.445-6.123,11.886v0.72h3.242v13.057c0,2.971-0.45,4.052-3.872,4.592v0.9
	h14.137v-0.9c-3.692-0.63-4.142-1.081-4.142-4.592v-13.057h4.502L130.8,108.474L130.8,108.474z M101.536,115.498
	c0.09-3.782,1.711-6.393,4.592-6.393c2.701,0,4.592,2.521,4.592,6.393H101.536z M95.413,117.209v7.654
	c-1.981,1.531-3.152,2.071-4.682,2.071c-1.621,0-2.611-1.261-2.611-3.422C88.119,119.64,91.091,119.37,95.413,117.209
	 M83.617,114.417c1.171-2.431,2.971-3.422,6.303-3.422c3.062,0,5.493,0.99,5.493,5.133c-5.403,1.981-13.777,2.251-13.777,8.014
	c0,2.971,2.791,5.313,6.393,5.313c3.422,0,5.673-1.351,9.185-4.592c2.251,3.152,5.403,4.592,9.545,4.592
	c4.952,0,8.464-2.251,10.535-6.933h-0.9c-1.801,2.611-4.502,4.322-7.114,4.322c-4.412,0-8.014-4.052-7.744-10.085h15.758
	c-0.63-5.763-4.502-9.095-10.535-9.095c-2.971,0-4.772,0.63-7.474,2.611c-2.341-1.801-4.412-2.611-7.474-2.611
	c-4.952,0-8.284,2.521-9.095,6.753L83.617,114.417L83.617,114.417z M81.636,109.375c-0.99-1.171-2.251-1.711-3.602-1.711
	c-2.521,0-4.682,2.071-6.663,6.393h-0.09v-6.393h-0.9l-8.824,0.81v0.9c2.611,0.18,3.692,1.351,3.692,3.962v10.715
	c0,2.341-0.72,3.152-3.422,3.782v0.9h12.876v-0.9c-2.971-0.63-3.422-1.351-3.422-3.782v-8.284c1.531-2.161,2.701-2.881,4.502-2.881
	c1.351,0,2.791,0.9,4.592,2.611L81.636,109.375z M58.854,121.441c-3.242,3.512-6.303,4.952-10.085,4.952
	c-5.943,0-11.346-3.962-11.346-14.497c0-8.284,3.692-13.597,9.545-13.597c5.313,0,9.185,3.692,10.715,9.995h0.9V96.768h-0.9
	c-0.54,1.171-1.171,1.621-1.891,1.621c-1.531,0-4.142-1.891-8.824-1.891c-9.725,0-17.019,7.294-17.019,16.928
	c0,9.455,6.573,16.028,16.208,16.028c5.493,0,9.545-2.071,12.696-6.393V121.441L58.854,121.441z"/>
</svg>
