<?xml version="1.0" encoding="utf-8"?>
<!-- Generator: Adobe Illustrator 21.1.0, SVG Export Plug-In . SVG Version: 6.00 Build 0)  -->
<svg version="1.1" id="Layer_1" xmlns="http://www.w3.org/2000/svg" xmlns:xlink="http://www.w3.org/1999/xlink" x="0px" y="0px"
	 viewBox="0 0 240 240" style="enable-background:new 0 0 240 240;" xml:space="preserve">
<style type="text/css">
	.st0{fill:#222222;}
</style>
<path class="st0" d="M200.2,125.1c-1.4,1.4-2.6,2.1-3.8,2.1c-1.6,0-2.8-1.4-2.8-3.7c0-2.7,1.5-4,6.6-6.1V125.1L200.2,125.1z
	 M206.3,115.2c0-5.6-4.6-7.6-8.9-7.6c-4.7,0-8,2.5-9.1,6.8h0.8c1.3-2.3,3.3-3.4,6-3.4c3.7,0,5,1.7,5,5.3c-5,1.8-13,2.3-13,7.7
	c0,3,2.7,5.3,6,5.3c2.4,0,4.3-0.6,6.4-2.4l0.4-0.4c1,2.1,2.4,2.9,4.9,2.9c3,0,4.7-1.4,5-3.9H209c-0.2,1.3-0.7,1.9-1.6,1.9
	c-0.9,0-1.3-0.8-1.3-2.7L206.3,115.2L206.3,115.2z M167.6,136.5c0-1.9,2.2-3.2,5.6-3.2c3.2,0,11.2,0.8,11.2,4.9
	c0,1.9-2.2,3.3-5.1,3.3C175.3,141.5,167.6,140.3,167.6,136.5 M170.1,115.8c0-4.4,1.6-6.6,4.9-6.6c2.3,0,4.3,2.1,4.3,6.4
	c0,4.7-2.1,6.7-4.6,6.7C172,122.3,170.1,119.7,170.1,115.8 M187.9,107.8h-10.5c-0.4,0-1.8-0.1-3-0.1c-6,0-10.3,3.7-10.3,8.3
	c0,3.5,2.1,5.7,6.8,7.1v0.1c-4.8,1.1-6.6,2.2-6.6,4.5c0,2.2,1,4.1,7.1,4.9v0.1c-5.9,0.6-8.6,3.4-8.6,6c0,3.7,4.8,6.3,11.6,6.3
	c9,0,13.5-4.5,13.5-9.2c0-1.4-0.6-3.1-1.9-4.4c-4.8-4.8-16.7-2.2-16.7-5.5c0-1.7,2.4-2.2,6.5-2.2c6,0,9.7-3.4,9.7-7.4
	c0-2-0.7-3.5-2.7-5.1l0.1-0.1l5.1,0.4L187.9,107.8L187.9,107.8z M153.1,98.6c0,1.9,1.6,3.5,3.5,3.5c1.9,0,3.5-1.6,3.5-3.5
	s-1.5-3.5-3.5-3.5C154.8,95.1,153.1,96.7,153.1,98.6 M159.7,107.7h-0.9l-8.8,0.7v0.9c3,0.6,3.7,1.3,3.7,3.8v10.8
	c0,2.6-0.6,3.3-3.4,3.9v0.9h12.7v-0.9c-2.3-0.3-3.2-1.4-3.2-3.4V107.7L159.7,107.7z M135.9,123.1c0,4.6,3.1,6.4,6.8,6.4
	c3,0,5-1.1,6.5-3.6l-0.6-0.6c-1,1.2-1.9,1.6-3,1.6c-2.9,0-3.7-1.9-3.7-5.2V110h6.7v-1.6H142v-7.8h-1c-2.9,3.7-6.2,6.8-8.6,8.5v1h3.7
	L135.9,123.1L135.9,123.1z M130.8,108.5h-4.5v-6c0-3.9,1.2-5.9,3.3-5.9c1.6,0,3.9,1.8,3.5,6h0.9l4.3-5.2c-1.9-1.5-4.3-2.3-7.3-2.3
	c-4.1,0-6.6,1.2-7.9,2.4c-5,5,0.1,10.4-6.1,11.9v0.7h3.2v13.1c0,3-0.4,4.1-3.9,4.6v0.9h14.1v-0.9c-3.7-0.6-4.1-1.1-4.1-4.6v-13.1
	h4.5L130.8,108.5L130.8,108.5z M101.5,115.5c0.1-3.8,1.7-6.4,4.6-6.4c2.7,0,4.6,2.5,4.6,6.4H101.5z M95.4,117.2v7.7
	c-2,1.5-3.2,2.1-4.7,2.1c-1.6,0-2.6-1.3-2.6-3.4C88.1,119.6,91.1,119.4,95.4,117.2 M83.6,114.4c1.2-2.4,3-3.4,6.3-3.4
	c3.1,0,5.5,1,5.5,5.1c-5.4,2-13.8,2.3-13.8,8c0,3,2.8,5.3,6.4,5.3c3.4,0,5.7-1.4,9.2-4.6c2.3,3.2,5.4,4.6,9.5,4.6
	c5,0,8.5-2.3,10.5-6.9h-0.9c-1.8,2.6-4.5,4.3-7.1,4.3c-4.4,0-8-4.1-7.7-10.1h15.8c-0.6-5.8-4.5-9.1-10.5-9.1c-3,0-4.8,0.6-7.5,2.6
	c-2.3-1.8-4.4-2.6-7.5-2.6c-5,0-8.3,2.5-9.1,6.8H83.6L83.6,114.4z M81.6,109.4c-1-1.2-2.3-1.7-3.6-1.7c-2.5,0-4.7,2.1-6.7,6.4h-0.1
	v-6.4h-0.9l-8.8,0.8v0.9c2.6,0.2,3.7,1.4,3.7,4v10.7c0,2.3-0.7,3.2-3.4,3.8v0.9h12.9v-0.9c-3-0.6-3.4-1.4-3.4-3.8v-8.3
	c1.5-2.2,2.7-2.9,4.5-2.9c1.4,0,2.8,0.9,4.6,2.6L81.6,109.4z M58.9,121.4c-3.2,3.5-6.3,5-10.1,5c-5.9,0-11.3-4-11.3-14.5
	c0-8.3,3.7-13.6,9.5-13.6c5.3,0,9.2,3.7,10.7,10h0.9V96.8h-0.9c-0.5,1.2-1.2,1.6-1.9,1.6c-1.5,0-4.1-1.9-8.8-1.9
	c-9.7,0-17,7.3-17,16.9c0,9.5,6.6,16,16.2,16c5.5,0,9.5-2.1,12.7-6.4L58.9,121.4L58.9,121.4z"/>
</svg>
