<?xml version="1.0" encoding="utf-8"?>
<!-- Generator: Adobe Illustrator 16.2.1, SVG Export Plug-In . SVG Version: 6.00 Build 0)  -->
<!DOCTYPE svg PUBLIC "-//W3C//DTD SVG 1.1//EN" "http://www.w3.org/Graphics/SVG/1.1/DTD/svg11.dtd">
<svg version="1.1" id="Layer_1" xmlns="http://www.w3.org/2000/svg" xmlns:xlink="http://www.w3.org/1999/xlink" x="0px" y="0px"
	 width="695.993px" height="369.865px" viewBox="0 0 695.993 369.865" enable-background="new 0 0 695.993 369.865"
	 xml:space="preserve">
<g>
	<defs>
		<rect id="SVGID_1_" width="695.993" height="369.865"/>
	</defs>
	<clipPath id="SVGID_2_">
		<use xlink:href="#SVGID_1_"  overflow="visible"/>
	</clipPath>
	<path clip-path="url(#SVGID_2_)" fill="#1D1D1B" d="M550.171,42.487h50.309c22.433,0,36.712,11.562,36.712,30.931
		c0,21.417-13.94,32.633-36.712,32.633h-50.309V42.487z M550.171,142.757h51.671c30.246,0,44.52,12.579,44.52,35.351
		c0,22.433-14.273,34.673-42.486,34.673h-53.704V142.757z M501.572,250.848h99.925c50.646,0,94.496-19.376,94.496-72.74
		c0-33.649-18.015-48.606-36.713-57.444c12.917-8.492,27.875-28.892,27.875-52.002c0-50.986-46.229-64.242-89.731-64.242h-95.852
		V250.848z M384.706,160.487c23.788,12.689,36.879,21.811,36.879,36.091c0,11.099-9.91,21.015-24.985,27.758l-4.757-2.78
		l-52.739-26.962c-17.845-8.728-30.534-17.447-30.534-32.516c0-12.689,9.118-22.605,23.395-27.758L384.706,160.487z
		 M365.674,330.607c-27.761,0-41.245-17.053-45.605-46.795h-50.363c3.174,53.537,41.637,86.053,94.379,86.053
		c49.167,0,89.22-27.758,89.22-72.962c0-21.022-8.721-36.879-23-49.969c26.969-12.689,44.416-33.311,44.416-58.288
		c0-30.932-23.394-49.174-61.469-68.605l-53.925-27.356c-19.034-9.121-30.14-17.849-30.14-32.121
		c0-12.295,12.689-20.621,33.708-20.621c23.788,0,39.651,13.478,42.825,34.5h50.363c-5.553-46.401-42.03-73.757-91.999-73.757
		c-42.826,0-86.447,22.205-86.447,62.651c0,19.038,7.932,35.689,21.015,48.379c-23.792,12.689-41.239,31.727-41.239,55.916
		c0,30.53,21.413,52.735,57.102,70.583l50.356,25.379c25.379,12.689,36.091,21.811,36.091,38.462
		C400.963,319.502,385.895,330.607,365.674,330.607 M120.663,0C45.205,0,0,49.969,0,126.444
		c0,78.515,43.168,128.823,112.506,128.823c34.669,0,60.159-13.257,74.097-33.311l1.358,28.891h38.407V119.985H119.982v39.77h61.521
		v4.08c0,39.762-35.008,52.68-61.521,52.68c-42.145,0-69.678-31.271-69.678-90.07c0-59.139,28.892-87.691,70.02-87.691
		c27.529,0,51.664,13.595,59.142,40.447h46.225C217.873,33.649,178.446,0,120.663,0"/>
</g>
</svg>
